<svg xmlns="http://www.w3.org/2000/svg" width="64" height="64" viewBox="0 0 64 64">
  <!-- کادر سفید با گوشه گرد -->
  <rect x="0" y="0" width="64" height="64" rx="16" ry="16" fill="#fff7f4"/>
  
  <!-- آیکون وسط -->
  <g transform="translate(12 12) scale(1.7)" fill="#ff7643">
    <!-- علامت وسط -->
    <path d="m12.195 18.083l2.436-6.84q.073-.21-.042-.371q-.115-.16-.325-.16H12.3V5.876q0-.185-.168-.204t-.227.13L9.47 12.679q-.074.212.041.373q.115.16.326.16H11.8v4.8q0 .183.168.202t.227-.13"/>
    
    <!-- دایره بولدتر -->
    <path
      d="M12 20q3.325 0 5.663-2.337T20 12t-2.337-5.663T12 4T6.337 6.338T4 12t2.338 5.663T12 20"
      fill="none"
      stroke="#ff7643"
      stroke-width="1.3"
    />
  </g>
</svg>
