<svg xmlns="http://www.w3.org/2000/svg" width="64" height="64" viewBox="0 0 64 64">
  <!-- کادر سفید با گوشه گرد -->
  <rect x="0" y="0" width="64" height="64" rx="16" ry="16" fill="#fff7f4"/>
  
  <!-- آیکون وسط کادر -->
  <g transform="translate(16 16) scale(2.2857)" fill="none" stroke="#ff7643" stroke-linecap="round" stroke-linejoin="round">
    <path d="M.5 6.5v4a1 1 0 0 0 1 1h6a1 1 0 0 0 1-1v-4a1 1 0 0 0-1-1h-6a1 1 0 0 0-1 1m2.5 7h3m-1.5 0v-2"></path>
    <path d="M7.5 3.5V3a.5.5 0 0 1 .5-.5h5a.5.5 0 0 1 .5.5v10a.5.5 0 0 1-.5.5H9"></path>
    <path d="M11.375 4.875a.125.125 0 1 1 0-.25m0 .25a.125.125 0 1 0 0-.25M10.5 7h3"></path>
  </g>
</svg>
