<svg xmlns="http://www.w3.org/2000/svg" width="64" height="64" viewBox="0 0 64 64">
  <!-- کادر سفید با گوشه گرد -->
  <rect x="0" y="0" width="64" height="64" rx="16" ry="16" fill="#fff7f4"/>
  
  <!-- آیکون وسط کادر -->
  <g transform="translate(16 16) scale(2)" fill="#ff7643">
    <path d="M12 1a1 1 0 0 1 1 1v12a1 1 0 0 1-1 1H4a1 1 0 0 1-1-1V2a1 1 0 0 1 1-1zM4 0a2 2 0 0 0-2 2v12a2 2 0 0 0 2 2h8a2 2 0 0 0 2-2V2a2 2 0 0 0-2-2z"></path>
    <path d="M8 4.75a.75.75 0 1 1 0-1.5a.75.75 0 0 1 0 1.5M8 6a2 2 0 1 0 0-4a2 2 0 0 0 0 4m0 3a1.5 1.5 0 1 0 0 3a1.5 1.5 0 0 0 0-3m-3.5 1.5a3.5 3.5 0 1 1 7 0a3.5 3.5 0 0 1-7 0"></path>
  </g>
</svg>
