
<svg xmlns="http://www.w3.org/2000/svg" width="64" height="64" viewBox="0 0 64 64">
  <!-- کادر سفید با گوشه گرد -->
  <rect x="0" y="0" width="64" height="64" rx="16" ry="16" fill="#23262B"/>
  
  <!-- آیکون وسط کادر، scale و translate دقیق -->
  <g transform="translate(16 16) scale(0.0625)" stroke="#ff7643" stroke-width="32" stroke-miterlimit="10" stroke-linecap="round" stroke-linejoin="round" fill="none">
    <path d="M467.51 248.83c-18.4-83.18-45.69-136.24-89.43-149.17A91.5 91.5 0 0 0 352 96c-26.89 0-48.11 16-96 16s-69.15-16-96-16a99 99 0 0 0-27.2 3.66C89 112.59 61.94 165.7 43.33 248.83c-19 84.91-15.56 152 21.58 164.88c26 9 49.25-9.61 71.27-37c25-31.2 55.79-40.8 119.82-40.8s93.62 9.6 118.66 40.8c22 27.41 46.11 45.79 71.42 37.16c41.02-14.01 40.44-79.13 21.43-165.04Z"></path>
    <path d="M160 176v96m48-48h-96"></path>
  </g>
  <g transform="translate(16 16) scale(0.0625)" fill="#ff7643">
    <circle cx="292" cy="224" r="20"></circle>
    <path d="M336 288a20 20 0 1 1 20-19.95A20 20 0 0 1 336 288"></path>
    <circle cx="336" cy="180" r="20"></circle>
    <circle cx="380" cy="224" r="20"></circle>
  </g>
</svg>
