
<svg xmlns="http://www.w3.org/2000/svg" width="64" height="64" viewBox="0 0 64 64">
  <!-- کادر سفید با گوشه گرد -->
  <rect x="0" y="0" width="64" height="64" rx="16" ry="16" fill="#23262B"/>
  
  <!-- آیکون تبلت وسط کادر -->
  <g transform="translate(17 18) scale(0.03)">
    <path fill="#ff7643" d="M832.144 0H191.856c-53.024 0-96 42.976-96 96v832c0 53.024 42.976 96 96 96h640.288c53.024 0 96-42.976 96-96V96c0-53.024-42.976-96-96-96m32 928c0 17.664-14.336 32-32 32H191.856c-17.664 0-32-14.336-32-32V96c0-17.664 14.336-32 32-32h640.288c17.664 0 32 14.336 32 32zM512.048 800.176c-35.28 0-63.84 28.592-63.84 63.824s28.56 63.841 63.84 63.841c35.264 0 63.84-28.608 63.84-63.84s-28.576-63.825-63.84-63.825m64-704.176h-128c-17.664 0-32 14.336-32 32s14.336 32 32 32h128c17.664 0 32-14.336 32-32s-14.336-32-32-32"/>
  </g>
</svg>
